<svg width="282" height="57" viewBox="0 0 282 57" fill="none" xmlns="http://www.w3.org/2000/svg">
<g clip-path="url(#clip0_14_32)">
<path fill-rule="evenodd" clip-rule="evenodd" d="M0 17.2558L51.3318 2.52643C46.9535 19.7299 42.575 36.9335 38.1967 54.137C35.491 46.3465 32.2714 38.7987 26.2616 32.5681C19.7058 25.8098 11.2071 20.5137 0 17.2555L0 17.2558Z" fill="#37D204"/>
<path fill-rule="evenodd" clip-rule="evenodd" d="M37.8079 52.327C35.2571 44.983 32.2221 37.8679 26.5573 31.9947L50.1902 3.6754C46.0629 19.8927 41.9355 36.11 37.8082 52.3273L37.8079 52.327Z" fill="url(#paint0_linear_14_32)"/>
<path fill-rule="evenodd" clip-rule="evenodd" d="M40.1119 15.752L50.1902 3.6754L40.1119 6.56716L1.80103 17.56C12.3656 20.6313 20.3771 25.6236 26.5569 31.9947L40.1119 15.7517V15.752Z" fill="url(#paint1_linear_14_32)"/>
<path d="M28.4286 10.7099L21.035 18.6006L21.6812 19.2101L28.155 12.3017L28.4381 12.5689L24.6951 22.0537L25.2179 22.5472L34.3929 18.1872L34.6614 18.4407L28.1879 25.3494L28.8344 25.9592L36.2277 18.0687L34.928 16.8422L26.076 21.1056L29.7213 11.9297L28.4286 10.7099Z" fill="#FEFEFE"/>
<path d="M31.2747 28.3381L34.6659 31.5376C36.0312 32.8258 36.5124 33.0569 37.3599 32.8533C38.2439 32.6398 39.3275 31.79 40.968 30.0394C42.7084 28.182 43.3273 27.3174 43.5285 26.4597C43.753 25.4903 43.5045 25.0105 42.0086 23.599L38.6682 20.4473L31.2747 28.3378V28.3381ZM32.7856 28.0249L38.4499 21.9798L41.1296 24.508C41.6745 25.0219 41.885 25.2205 41.9936 25.3676C42.3922 25.8328 42.4843 26.1872 42.3559 26.6457C42.1789 27.2143 41.4936 28.1501 40.3517 29.3685C38.556 31.285 37.5474 31.9379 36.8359 31.6458C36.4675 31.4987 36.4384 31.4713 35.5016 30.5875L32.7856 28.0252V28.0249Z" fill="#FEFEFE"/>
<path d="M61.9114 16.25H66.9082L81.0761 36.7038L95.2744 16.25H100.21V40.7395H97.072V19.2768L82.2948 40.7395H80.1011L65.0496 19.3991V40.7395H61.9114V16.25Z" fill="white"/>
<path d="M121.962 16.25C125.222 16.25 129.823 16.3111 131.925 19.8883C133.844 23.2208 133.662 33.6464 131.864 36.8872C129.64 40.8312 124.369 40.7395 121.87 40.7395H103.681V16.25H121.962ZM106.819 38.049H121.657C123.82 38.049 127.537 38.3242 129.152 35.4808C130.493 33.2184 130.432 23.6182 129.152 21.4169C127.537 18.6042 123.12 18.9405 121.657 18.9405H106.819V38.049Z" fill="white"/>
<path d="M136.701 16.25H139.809V26.7062H143.922L159.157 16.25H164.428L147.426 28.0208L165.951 40.7395H160.467L143.74 29.3661H139.809V40.7395H136.701V16.25Z" fill="white"/>
<path d="M171.575 16.25H198.996V18.9405H186.961V40.7395H183.823V18.9405H171.575V16.25Z" fill="white"/>
<path d="M208.332 31.7203H205.833C205.803 30.8336 206.138 27.7457 204.188 26.7062C202.665 25.9113 196.754 25.9113 195.169 26.8896C193.159 28.1126 193.372 30.9559 193.372 32.8515V40.7395H190.599V23.71H193.28V26.4004C195.566 23.2208 200.562 23.7405 202.177 23.8017C203.64 23.8323 206.412 24.1074 207.662 26.2476C208.423 27.5622 208.332 30.6502 208.332 31.7203Z" fill="white"/>
<path d="M232.773 40.7395H230.001V38.9968C228.477 40.8312 227.015 40.7395 225.217 40.7395H218.971C216.381 40.7395 213.334 41.0146 212.055 38.7522C211.476 37.7433 211.293 33.891 212.055 32.668C213.395 30.4362 216.168 30.7113 219.123 30.7113H225.065C226.741 30.7113 228.66 30.9253 230.001 32.4846C230.001 30.0387 230.092 28.2349 229.056 27.1648C227.99 26.0336 226.07 26.1253 223.45 26.1253H220.129C217.722 26.1253 216.259 25.9418 215.345 27.3482C215.102 27.7763 215.102 28.9381 215.102 28.9381H212.268C212.268 27.6845 212.268 26.2476 213.395 25.1469C214.766 23.8017 216.381 23.71 219.154 23.71H223.45C226.649 23.71 229.483 23.6182 231.341 25.575C232.926 27.1954 232.773 29.3967 232.773 32.454V40.7395ZM214.675 34.105C214.188 34.8693 214.279 36.7038 214.645 37.3458C215.528 38.8439 217.783 38.691 220.373 38.691H223.755C224.821 38.6299 228.751 38.7216 229.696 37.1624C230.062 36.5815 229.97 34.9916 229.696 34.4719C228.721 32.668 227.198 32.8515 223.663 32.8515H219.916C217.143 32.8515 216.655 32.9432 216.29 33.0349C215.528 33.2184 215.01 33.5547 214.675 34.105Z" fill="white"/>
<path d="M231.686 23.71H234.703L242.96 38.3547L251.095 23.71H254.081L244.635 40.7395H241.223L231.686 23.71Z" fill="white"/>
<path d="M275.147 33.1572H256.257C256.257 34.3802 256.257 35.9394 257.415 37.1012C258.755 38.4464 260.675 38.3242 261.528 38.3242H266.89C269.876 38.3242 271.765 38.6299 272.436 35.3585H275.208C274.934 40.1891 272.192 40.7395 267.744 40.7395H263.051C260.462 40.7395 256.257 41.0452 254.337 37.5904C253.088 35.3585 252.997 29.0298 254.246 26.8285C256.135 23.5571 259.791 23.71 262.29 23.71H266.037C267.012 23.71 272.1 23.4042 274.172 26.7062C275.117 28.1737 275.208 31.2005 275.147 33.1572ZM270.638 26.9202C268.901 25.9113 259.791 25.8501 258.055 26.7979C256.348 27.7763 256.287 29.4884 256.257 30.7725H272.192C272.161 29.2744 272.466 28.0208 270.638 26.9202Z" fill="white"/>
<path d="M278.558 16.25H281.331V40.7395H278.558V16.25Z" fill="white"/>
</g>
<defs>
<linearGradient id="paint0_linear_14_32" x1="48.9891" y1="11.7311" x2="43.1959" y2="34.3372" gradientUnits="userSpaceOnUse">
<stop stop-color="#4DAD10"/>
<stop offset="1" stop-color="#398B10"/>
</linearGradient>
<linearGradient id="paint1_linear_14_32" x1="31.4204" y1="5.47645" x2="34.8671" y2="23.5812" gradientUnits="userSpaceOnUse">
<stop stop-color="#44C108"/>
<stop offset="1" stop-color="#236014"/>
</linearGradient>
<clipPath id="clip0_14_32">
<rect width="281.217" height="56" fill="white" transform="translate(0 0.5)"/>
</clipPath>
</defs>
</svg>
